HIERARCHY
ROOT Hips
{
	OFFSET 0.000000 0.000000 0.000000
	CHANNELS 6 Xposition Yposition Zposition Xrotation Yrotation Zrotation
	JOINT LeftUpLeg_virtual
	{
		OFFSET 0.000000 0.000000 0.000000
		CHANNELS 3 Xrotation Yrotation Zrotation
		JOINT LeftUpLeg
		{
			OFFSET 15.427100 -6.655098 0.678600
			CHANNELS 3 Xrotation Yrotation Zrotation
			JOINT LeftLeg
			{
				OFFSET 4.081073 -39.591068 13.024000
				CHANNELS 3 Xrotation Yrotation Zrotation
				JOINT LeftFoot
				{
					OFFSET -4.081074 -37.707932 -15.979700
					CHANNELS 3 Xrotation Yrotation Zrotation
					JOINT LeftToeBase
					{
						OFFSET 5.346399 -15.068900 20.645000
						CHANNELS 3 Xrotation Yrotation Zrotation
						JOINT LeftToe_End
						{
							OFFSET 2.754700 0.931300 11.300900
							CHANNELS 3 Xrotation Yrotation Zrotation
							End Site
							{
								OFFSET 0 0 0
							}
						}
					}
				}
			}
		}
	}
	JOINT RightUpLeg_virtual
	{
		OFFSET 0.000000 0.000000 0.000000
		CHANNELS 3 Xrotation Yrotation Zrotation
		JOINT RightUpLeg
		{
			OFFSET -15.569500 -6.655098 0.678600
			CHANNELS 3 Xrotation Yrotation Zrotation
			JOINT RightLeg
			{
				OFFSET -4.081825 -39.591045 13.023800
				CHANNELS 3 Xrotation Yrotation Zrotation
				JOINT RightFoot
				{
					OFFSET 4.081824 -37.707954 -15.979600
					CHANNELS 3 Xrotation Yrotation Zrotation
					JOINT RightToeBase
					{
						OFFSET -5.346400 -15.068900 20.645000
						CHANNELS 3 Xrotation Yrotation Zrotation
						JOINT RightToe_End
						{
							OFFSET -2.754700 0.931300 11.300900
							CHANNELS 3 Xrotation Yrotation Zrotation
							End Site
							{
								OFFSET 0 0 0
							}
						}
					}
				}
			}
		}
	}
	JOINT Spine_virtual
	{
		OFFSET 0.000000 0.000000 0.000000
		CHANNELS 3 Xrotation Yrotation Zrotation
		JOINT Spine
		{
			OFFSET -0.279200 12.230698 -2.892100
			CHANNELS 3 Xrotation Yrotation Zrotation
			JOINT Spine1
			{
				OFFSET -0.232667 10.192268 -1.242267
				CHANNELS 3 Xrotation Yrotation Zrotation
				JOINT Spine1_split
				{
					OFFSET -0.232667 10.192268 -1.242267
					CHANNELS 3 Xrotation Yrotation Zrotation
					JOINT Spine2
					{
						OFFSET -0.232667 10.192268 -1.242267
						CHANNELS 3 Xrotation Yrotation Zrotation
						JOINT Neck_virtual
						{
							OFFSET 0.000000 0.000000 0.000000
							CHANNELS 3 Xrotation Yrotation Zrotation
							JOINT Neck
							{
								OFFSET -0.418800 17.814194 8.416900
								CHANNELS 3 Xrotation Yrotation Zrotation
								JOINT Head
								{
									OFFSET 0.000000 7.031097 3.806800
									CHANNELS 3 Xrotation Yrotation Zrotation
									JOINT HeadTop_End
									{
										OFFSET 0.000000 24.646606 12.978600
										CHANNELS 3 Xrotation Yrotation Zrotation
										End Site
										{
											OFFSET 0 0 0
										}
									}
								}
							}
						}
						JOINT LeftShoulder_virtual
						{
							OFFSET 0.000000 0.000000 0.000000
							CHANNELS 3 Xrotation Yrotation Zrotation
							JOINT LeftShoulder
							{
								OFFSET 8.476499 7.247704 -3.868750
								CHANNELS 3 Xrotation Yrotation Zrotation
								JOINT LeftShoulder_split
								{
									OFFSET 8.476499 7.247704 -3.868750
									CHANNELS 3 Xrotation Yrotation Zrotation
									JOINT LeftArm
									{
										OFFSET 9.308998 -2.777710 0.208600
										CHANNELS 3 Xrotation Yrotation Zrotation
										JOINT LeftForeArm
										{
											OFFSET 29.972298 0.000000 0.000000
											CHANNELS 3 Xrotation Yrotation Zrotation
											JOINT LeftHand
											{
												OFFSET 26.026505 0.000000 0.000000
												CHANNELS 3 Xrotation Yrotation Zrotation
												End Site
												{
													OFFSET 0 0 0
												}
											}
										}
									}
								}
							}
						}
						JOINT RightShoulder_virtual
						{
							OFFSET 0.000000 0.000000 0.000000
							CHANNELS 3 Xrotation Yrotation Zrotation
							JOINT RightShoulder
							{
								OFFSET -7.570500 7.247704 -3.868750
								CHANNELS 3 Xrotation Yrotation Zrotation
								JOINT RightShoulder_split
								{
									OFFSET -7.570500 7.247704 -3.868750
									CHANNELS 3 Xrotation Yrotation Zrotation
									JOINT RightArm
									{
										OFFSET -9.308998 -2.777710 0.208500
										CHANNELS 3 Xrotation Yrotation Zrotation
										JOINT RightForeArm
										{
											OFFSET -29.972300 0.000000 0.000000
											CHANNELS 3 Xrotation Yrotation Zrotation
											JOINT RightHand
											{
												OFFSET -26.026505 0.000000 0.000000
												CHANNELS 3 Xrotation Yrotation Zrotation
												End Site
												{
													OFFSET 0 0 0
												}
											}
										}
									}
								}
							}
						}
					}
				}
			}
		}
	}
}
MOTION
Frames: 5
Frame Time: 0.03333333
-15.560515 89.119537 -4.313984 0.000000 0.000000 0.000000 -173.751120 -51.737850 -168.663161 -94.881566 -26.479554 10.674811 80.152502 -9.616501 -42.846801 48.866223 -13.704110 -23.727065 -7.214960 -0.907460 1.339711 0.000000 0.000000 0.000000 -174.412500 -48.362886 -169.928946 -8.128943 35.091914 -4.865808 35.298909 12.428115 -0.753055 -15.196047 12.898864 6.398642 -1.966160 1.138497 3.067888 0.000000 0.000000 0.000000 -171.386016 -50.634897 -165.157499 18.630946 3.559851 1.093274 7.139604 -0.002661 0.122741 1.013524 -1.849598 0.782436 0.000000 0.000000 0.000000 10.544557 0.215279 -0.591525 4.669922 38.661528 5.690741 8.897776 47.960786 -31.558182 0.000000 0.000000 0.000000 9.676431 -0.156032 -0.380749 -2.219173 -12.800221 11.562778 2.816669 0.121847 -1.665600 -54.819815 -49.093016 -41.611896 -97.577373 -26.069126 -91.809299 0.000000 0.000000 0.000000 7.973133 -0.422882 -0.599145 -3.751004 20.369876 4.054958 3.798657 -2.197388 4.014486 -54.854663 14.114884 26.343526 128.515309 41.392053 -123.969942 0.000000 0.000000 0.000000 
-16.698114 89.669373 -4.210899 0.000000 0.000000 0.000000 -172.476989 -49.337735 -166.445740 -99.883156 -23.927689 11.172482 79.223091 -12.820584 -42.277887 44.460748 -17.286563 -29.414114 -12.152773 -1.363695 2.424193 0.000000 0.000000 0.000000 -173.585870 -44.169105 -168.088538 -6.222934 37.094867 -6.470693 35.333316 12.998807 -0.396788 -15.154207 13.943286 6.693137 -3.581132 1.098845 3.245128 0.000000 0.000000 0.000000 -171.538862 -47.609451 -165.130328 19.183433 4.089060 0.955999 7.681711 0.257382 -0.248680 0.798832 -1.798930 0.847682 0.000000 0.000000 0.000000 11.176305 0.423943 -1.110282 6.105496 39.135597 4.856527 8.105951 48.922121 -31.909445 0.000000 0.000000 0.000000 10.361078 0.042768 -0.769530 -1.737027 -12.441505 16.029052 2.637702 -0.355039 -1.693696 -66.442878 -45.922616 -47.291963 -96.681116 -27.768752 -91.113644 0.000000 0.000000 0.000000 8.497103 -0.253047 -1.003294 -2.712584 21.045802 -0.042618 3.797409 -2.527268 4.093719 -61.723183 12.873903 25.474847 130.211505 41.093249 -126.431296 0.000000 0.000000 0.000000 
-17.668871 90.209999 -4.208588 0.000000 0.000000 0.000000 -171.346101 -47.348514 -164.169662 -105.006994 -22.370198 12.145779 79.667525 -17.266104 -41.366276 42.842734 -21.910116 -34.485007 -16.170637 -1.908391 3.797761 0.000000 0.000000 0.000000 -172.935404 -41.153454 -166.433760 -4.255295 38.688650 -8.609578 35.484759 13.540958 0.187835 -14.683098 14.702298 7.473793 -6.187638 0.953730 3.401377 0.000000 0.000000 0.000000 -171.548903 -45.358518 -164.714943 19.758433 4.414465 0.843690 8.076863 0.406074 -0.617801 0.707379 -1.907374 0.976823 0.000000 0.000000 0.000000 11.636060 0.521613 -1.585466 7.483270 39.519481 3.872408 7.523208 49.722312 -32.356365 0.000000 0.000000 0.000000 10.905347 0.134733 -1.151102 -1.346699 -12.129898 20.358478 2.765866 -0.731465 -1.780786 -75.316264 -42.005588 -51.482629 -95.715122 -29.384194 -90.190626 0.000000 0.000000 0.000000 8.856729 -0.184306 -1.369486 -1.642822 21.543057 -4.199186 3.838136 -2.882811 4.004252 -67.609427 11.050093 23.533132 131.867935 41.197071 -128.698044 0.000000 0.000000 0.000000 
-18.388449 90.508995 -4.268085 0.000000 0.000000 0.000000 -170.417482 -45.891850 -162.197663 -108.834994 -21.213975 13.411379 80.638607 -20.150410 -41.321094 42.479723 -24.131888 -37.224459 -17.351986 -2.186404 4.601206 0.000000 0.000000 0.000000 -172.414329 -39.299105 -165.014065 -2.429567 39.758873 -10.993408 35.846312 13.998205 1.042029 -14.388842 15.044108 8.459735 -8.602279 0.761847 3.539025 0.000000 0.000000 0.000000 -171.281269 -43.905569 -163.734715 20.331643 4.560150 0.717559 8.324604 0.419864 -0.931851 0.549012 -2.270666 0.992841 0.000000 0.000000 0.000000 11.938061 0.504272 -1.960013 8.744874 39.784172 2.819494 7.026295 50.347240 -32.774174 0.000000 0.000000 0.000000 11.273582 0.126267 -1.449105 -1.013739 -12.008335 24.438617 3.125402 -1.047335 -1.917711 -81.659570 -38.152501 -54.081650 -94.995535 -30.929613 -89.464700 0.000000 0.000000 0.000000 9.019074 -0.208903 -1.649875 -0.619183 21.892349 -8.058752 3.932180 -3.061780 3.970217 -72.527436 8.659161 20.669129 133.761182 41.466775 -131.020855 0.000000 0.000000 0.000000 
-18.921118 90.492889 -4.322357 0.000000 0.000000 0.000000 -169.832189 -44.771279 -160.688697 -110.289079 -20.287335 14.817626 80.867493 -20.333815 -42.564004 40.932951 -22.798517 -38.234682 -17.002748 -2.170123 4.832180 0.000000 0.000000 0.000000 -171.976473 -38.522373 -163.744838 -1.221421 40.396440 -13.182674 36.695574 14.330259 2.007332 -14.825771 14.902073 9.248262 -9.495429 0.627108 3.687970 0.000000 0.000000 0.000000 -170.690785 -43.094819 -162.235803 20.860765 4.545807 0.578139 8.402247 0.299760 -1.175013 0.373957 -2.664420 1.041696 0.000000 0.000000 0.000000 12.107114 0.401513 -2.216053 9.924235 39.949814 1.785106 6.569819 50.714759 -33.047013 0.000000 0.000000 0.000000 11.480061 0.030417 -1.657180 -0.695340 -12.102916 28.079797 3.369160 -1.353275 -2.020281 -85.926013 -35.132543 -55.461262 -94.663642 -32.519302 -89.243272 0.000000 0.000000 0.000000 9.025088 -0.302752 -1.832374 0.240651 22.084449 -11.244581 4.115066 -3.133439 4.068482 -76.535528 5.768291 17.244582 135.770118 41.816132 -133.367490 0.000000 0.000000 0.000000 
